<mxfile host="app.diagrams.net" modified="2023-10-30T18:42:17.635Z" agent="Mozilla/5.0 (Macintosh; Intel Mac OS X 10_15_7) AppleWebKit/537.36 (KHTML, like Gecko) Chrome/118.0.0.0 Safari/537.36" version="21.6.6" etag="wiK373YA0VZp1cua7cbb" type="github">
  <diagram name="Page-1" id="-oYLGjwDflNFFK01mnoo">
    <mxGraphModel>
      <root>
        <mxCell id="0" />
        <mxCell id="1" parent="0" />
      </root>
    </mxGraphModel>
  </diagram>
</mxfile>
